<svg id="Capa_1" data-name="Capa 1" xmlns="http://www.w3.org/2000/svg" viewBox="0 0 167 145"><defs><style>.cls-1{fill:#fbfbfb;}</style></defs><path class="cls-1" d="M42.17,43.9c.26-1.54.41-3.11.81-4.61,2-7.72,6.49-13.47,14.21-16,8.12-2.65,15.37-.81,21.29,5.45a73.53,73.53,0,0,1,4.59,5.93l.5-.84a23.78,23.78,0,0,1,9.73-9.59,19.28,19.28,0,0,1,15.76-.83c7.72,2.81,12.15,8.63,14,16.49,1.77,7.64,0,14.64-4.24,21.09a73.53,73.53,0,0,1-13.24,14.49c-6.88,6.09-13.87,12.06-20.82,18.07a2.41,2.41,0,0,1-3.44.14c-8-7-16-13.85-23.86-20.88A59.52,59.52,0,0,1,47.2,61.17a28.25,28.25,0,0,1-4.92-13.3,2.78,2.78,0,0,0-.11-.46ZM82.92,88.76c.16-.12.29-.21.41-.32,6.08-5.26,12.2-10.48,18.25-15.8a76.05,76.05,0,0,0,12.73-13.55c3.33-4.8,5.2-10,4.45-16-.74-5.77-3.24-10.51-8.21-13.75A15.5,15.5,0,0,0,92,30.93a25.86,25.86,0,0,0-6.63,10.44c-.48,1.31-1.22,1.92-2.34,1.93a2.41,2.41,0,0,1-2.42-1.92,28.63,28.63,0,0,0-3.4-6.74,16.82,16.82,0,0,0-9.44-7.15,16,16,0,0,0-18.21,8.09C45.72,42.83,46.19,50,50.24,57A45,45,0,0,0,58.9,67.56C64.69,72.88,70.62,78,76.51,83.25,78.61,85.11,80.77,86.91,82.92,88.76Z"/></svg>