<svg id="Capa_1" data-name="Capa 1" xmlns="http://www.w3.org/2000/svg" viewBox="0 0 177 164"><defs><style>.cls-1{fill:#fff;}</style></defs><path class="cls-1" d="M148,48.2c-.83,2.76-1.7,5.52-2.49,8.3Q140,75.81,134.45,95.12c-.69,2.41-1.73,3.18-4.25,3.18h-60c-2.73,0-4.3,1.25-4.3,3.4s1.58,3.4,4.3,3.4h59.85c2.72,0,4.3,1.25,4.3,3.4s-1.58,3.4-4.3,3.4H125.5c6.37,1.68,9.51,6.11,8.7,12a10.24,10.24,0,0,1-10,8.44,10.14,10.14,0,0,1-10.08-9.43c-.44-4.51,2.38-9.58,8.75-10.92H77.76a10.7,10.7,0,0,1,6.71,4.34,10.19,10.19,0,0,1,1.66,7.76,10.32,10.32,0,0,1-10.23,8.24A10.2,10.2,0,0,1,66,122.57c-.38-4.94,3.28-9.45,8.54-10.67-1.63,0-3.25,0-4.88,0a10.22,10.22,0,0,1-10-7.22,10.11,10.11,0,0,1,4.84-11.9c.26-.14.51-.3.82-.48L53,37.09H47.41c-4,0-7.93,0-11.9,0a3.38,3.38,0,0,1-3.33-4.64,3.16,3.16,0,0,1,3.07-2.13q10.2-.06,20.4,0c1.9,0,3,1.1,3.49,3.09.78,3.46,1.55,6.92,2.35,10.49H63q40.24,0,80.48,0c2.1,0,3.66.56,4.57,2.52Zm-7.93,2.57H63q4.55,20.43,9,40.67h56.41C132.32,77.87,136.19,64.36,140.07,50.77ZM79.52,122.1a3.39,3.39,0,1,0-3.38,3.4A3.43,3.43,0,0,0,79.52,122.1Zm48.07,0a3.4,3.4,0,1,0-3.37,3.42A3.43,3.43,0,0,0,127.59,122.08Z"/></svg>