<svg id="Capa_1" data-name="Capa 1" xmlns="http://www.w3.org/2000/svg" viewBox="0 0 399 185"><defs><style>.cls-1{fill:#e81313;}.cls-2{fill:#f8f7f9;}.cls-3{fill:#f7f6f8;}.cls-4{fill:#f8f6f8;}.cls-5{fill:#f8f7f8;}.cls-6{fill:#3e3253;}.cls-7{fill:#6c637a;}</style></defs><path class="cls-1" d="M102.5,24c10.76,0,18.06,1.14,25.07,4,6.25,2.51,9,7,7.29,12-2,5.66-7.27,8-13.71,5.61A42.6,42.6,0,0,0,89,46.13C68.22,54.65,57.74,81.22,67.19,101.5c2,4.31,2.76,4.45,6.11,1.16,1.55-1.52,3-3.16,4.63-4.58,4.81-4.15,7.73-8.55,7.76-15.7,0-11.72,13-20.4,24.15-17.68,3.73.9,4,2.31,1.34,4.83-2.35,2.25-4.63,4.57-6.94,6.87a12.63,12.63,0,0,0-1.94,2c-3.39,5.32,2.73,6.08,4.47,8.89,1.25,2,3.15,4.21,5.92,1.28s5.67-5.73,8.54-8.56c.86-.84,1.65-2.12,3.08-1.66,1.6.51,1.59,2.12,1.8,3.47,1.77,11.54-7.13,22.85-18.69,23.19-4.22.12-7.37,1.2-10.11,4.42-2.5,2.93-5.49,5.44-8.23,8.17-3.32,3.31-3.17,4.5,1.15,6.08,16.7,6.12,32,3.46,44.77-8.87s15.67-27.35,10.44-44c-1.16-3.7-2.16-7.14.35-10.59,2.15-3,5-4.7,8.73-4.34,4.14.41,6.7,3,8.06,6.77,6.87,19.15,5.43,37.61-5.53,54.82C139.5,145,104.41,153.56,75.7,137.53c-3.17-1.77-5.25-1.85-7.5,1A30.76,30.76,0,0,1,64,142.84a14.27,14.27,0,0,0-5.36,11.07c-.66,11.74-10.49,19.31-22.48,18.3-10.85-.92-18.89-10.7-18.08-22a20.16,20.16,0,0,1,21.63-18.48,8.39,8.39,0,0,0,7.69-3.09c2.48-2.76,6.15-5,7.41-8.16,1.4-3.57-2.67-6.52-4.13-9.83C31.68,67.62,63.11,23.64,102.5,24ZM45.18,152a6.8,6.8,0,0,0-6.83-6.71,6.64,6.64,0,0,0-6.46,6.6,6.77,6.77,0,0,0,6.57,7A7,7,0,0,0,45.18,152Z"/><path class="cls-2" d="M328.34,84.62c-5.06,0-9.38-.12-13.68,0-2.09.08-3.09-.94-4-2.54-1.32-2.46-2.75-4.85-4-7.32-.78-1.49-2-1.77-3.49-1.64s-1.47,1.35-1.75,2.34c-.81,2.94.08,7.19-2.43,8.57s-6.35.25-9.56.6c-4.23.45-5.51-.58-4.46-5.17,2.85-12.52,5.2-25.16,7.65-37.78.4-2.06.88-3.43,3.41-3.36,7.28.23,14.59,0,21.84.48,8.16.57,13.51,4.92,14.86,11.16,1.6,7.44-1.49,15.56-8.28,19.16-3.72,2-3.16,3.56-1.42,6.26S326.27,81,328.34,84.62ZM308.77,61.33c5.78,0,8.54-1.93,8.47-5.89-.09-4.92-3.74-5-7.24-5-3.72,0-5.35,2.74-5.32,8.74C304.69,62.93,307.6,60.6,308.77,61.33Z"/><path class="cls-2" d="M314.5,142.15a34.49,34.49,0,0,0-5.49,0c-7.74,1.48-13-1.11-15.57-8.83-.51-1.57-1.42-3.15-3.67-2.85-2.5.33-2,2.5-2.4,3.94-1.87,7.69-1.81,7.71-10,7.71-7.13,0-7.12,0-5.73-6.95,2.39-12,4.79-23.94,7.1-35.93.43-2.25,1-3.59,3.78-3.48,5.68.21,11.37,0,17.05.09a36.87,36.87,0,0,1,5.54.55c8.33,1.41,12.68,5.12,13.8,11.68,1.32,7.67-1.74,15.17-8.42,18.61-3.4,1.76-3.22,3.1-1.41,5.78S312.4,138.38,314.5,142.15Zm-19.74-23.28c6-.06,9-2.18,8.7-6.23-.36-4.44-3.71-4.73-7.14-4.73s-5.87,3.8-5.54,9.13C291,120.35,293.64,118.15,294.76,118.87Z"/><path class="cls-3" d="M265.71,113a41.24,41.24,0,0,1-.92,10.92l-8.36.67-8.37,0c-1.21-.17-2.48-.61-3.27.85-1.61,3.67-.8,5.31,3.58,5,4.94-.32,9.92,0,14.87-.08,2.12,0,3.36,0,2.82,3-1.58,8.75-1.4,8.79-10.47,8.79-8.52,0-17.05-.09-25.57.06-2.93.05-4.1-.32-3.36-3.77,2.73-12.71,5.15-25.49,7.64-38.24.49-2.55,1-4.9,4.45-4.5l29.8.09c3.77-.07,4.13,1.62,3.25,5-1.76,6.85-1.53,6.91-8.34,6.91-4,0-8.07.22-12.08,0-3-.21-3.78,1.23-3.67,3.78-.34,1.3.31,1.66,1.47,1.56h16.53Z"/><path class="cls-2" d="M275,84.73l-8.52-.1-.79-.92c-.23-1.23-.47-2.45-.7-3.68.4-2.52-.48-3.73-3.23-3.62-4,.15-8,0-12,0-1.41,0-2.85-.1-3.38,1.67-3.65,10.47-12.44,5.24-18.92,6.58-1.68-2,2.39-3.08.21-4.83l-.11.09c.34,0,.58.92,1,.16.17-.32,0-.78.05-1.18l-.11.11c1.2.51,1.07-.32,1.06-1l-.12.14c4.3-3.87,6.45-9.24,9.61-13.9,4.85-7.17,9.44-14.54,13.9-22,1.7-2.82,3.56-4,7-4,10.95.19,10.88,0,13.34,10.8s5,21.38,7.61,32.06c.46,1.92,1.13,3.79-2,3.56ZM253.76,64.94c8.67,1.2,8.69,1.2,7.32-6.57-.2-1.13.06-2.5-1.57-3.4C257.66,58.19,255.81,61.38,253.76,64.94Z"/><path class="cls-4" d="M201.69,143.12c-7,0-12.55-1-17.9-3.31-2-.87-2.71-1.83-1.36-3.76a12,12,0,0,0,.62-1.24c1.25-2.31,2-5.44,3.91-6.71s4.52,1.39,7,1.92A36,36,0,0,0,204,131.14c1.88-.12,4.24-.22,4.5-2.38s-2.15-2.33-3.7-2.84c-2.49-.83-5.06-1.43-7.57-2.2-5.14-1.57-9.59-4-10.23-10-.66-6.25,1.64-11.52,7-14.64,10.11-5.85,20.71-5.29,31.32-1.19,1.73.66,2.06,1.6.86,3.11a9.59,9.59,0,0,0-.9,2.12c-2.88,6.47-2.88,6.48-9.6,4.59a22,22,0,0,0-9.2-.63c-1.69.23-3.67.66-3.82,2.71s1.82,2.29,3.25,2.72c2.51.77,5.11,1.26,7.61,2,5.2,1.62,10,3.74,10.65,10.14.64,6.56-2.16,11.4-7.67,14.75A26.93,26.93,0,0,1,201.69,143.12Z"/><path class="cls-5" d="M345.09,122.66c5-8.14,9.58-15.11,13.7-22.32,1.93-3.36,4.12-4.94,8.09-4.49,3.29.38,6.67.08,10.68.08-9.41,15.18-18.48,29.73-27.43,44.34-1.38,2.26-3.34,1.85-5.27,1.88-11,.16-11.09.17-13.52-10.37-2.54-11-4.77-22.07-7.37-33-.62-2.61.28-2.73,2.37-2.83,13.13-.65,13.1-.68,15.65,12.31C342.85,112.61,343.86,117,345.09,122.66Z"/><path class="cls-5" d="M227.64,79.86c-5.49,3.14-11,5.87-17.65,5.81-11.81-.11-20.14-4.68-23.28-13.36-3.5-9.69.27-22,8.79-28.76,9.21-7.27,24.32-8.17,33.6-2,5.24,3.48,5.31,4.84.49,8.57a35.79,35.79,0,0,0-3.25,2.62c-2.22,2.17-3.8,2.4-6.32-.17-4-4-10.81-3.22-15,1-4.41,4.45-5.19,12.61-1.59,16.54,3.19,3.49,9.51,4.1,13.92.53,3.28-2.66,5.46-2.12,7.45.9,1.48,2.24,4.72,3.24,4.62,6.56l.12-.14c-.86-.17-1.17.22-1.06,1l.11-.11c-.8-.12-1.19.17-1,1Z"/><path class="cls-6" d="M265.71,113h-15"/><path class="cls-7" d="M275,84.73h3.77A3.23,3.23,0,0,1,275,84.73Z"/><path class="cls-7" d="M265.71,83.71l.79.92Z"/></svg>